<mxfile host="Electron" modified="2024-05-28T03:45:14.808Z" agent="Mozilla/5.0 (Windows NT 10.0; Win64; x64) AppleWebKit/537.36 (KHTML, like Gecko) draw.io/22.0.3 Chrome/114.0.5735.289 Electron/25.8.4 Safari/537.36" etag="VUJ1R5CPGjLa1fNkJbDK" version="22.0.3" type="device">
  <diagram name="第1頁" id="afbnIpFnpkoBPhDdIonz">
    <mxGraphModel dx="910" dy="534" grid="1" gridSize="10" guides="1" tooltips="1" connect="1" arrows="1" fold="1" page="1" pageScale="1" pageWidth="827" pageHeight="1169" math="0" shadow="0">
      <root>
        <mxCell id="0" />
        <mxCell id="1" parent="0" />
        <mxCell id="Am_2OvD1sLbjYcfCMmoj-73" value="使用者" style="swimlane;fontStyle=1;align=center;verticalAlign=top;childLayout=stackLayout;horizontal=1;startSize=26;horizontalStack=0;resizeParent=1;resizeParentMax=0;resizeLast=0;collapsible=1;marginBottom=0;whiteSpace=wrap;html=1;" vertex="1" parent="1">
          <mxGeometry x="90" y="150" width="290" height="240" as="geometry" />
        </mxCell>
        <mxCell id="Am_2OvD1sLbjYcfCMmoj-74" value="-&amp;nbsp; ID: int&lt;div&gt;&lt;br&gt;&lt;/div&gt;" style="text;strokeColor=none;fillColor=none;align=left;verticalAlign=top;spacingLeft=4;spacingRight=4;overflow=hidden;rotatable=0;points=[[0,0.5],[1,0.5]];portConstraint=eastwest;whiteSpace=wrap;html=1;" vertex="1" parent="Am_2OvD1sLbjYcfCMmoj-73">
          <mxGeometry y="26" width="290" height="26" as="geometry" />
        </mxCell>
        <mxCell id="Am_2OvD1sLbjYcfCMmoj-75" value="-&amp;nbsp; name: String" style="text;strokeColor=none;fillColor=none;align=left;verticalAlign=top;spacingLeft=4;spacingRight=4;overflow=hidden;rotatable=0;points=[[0,0.5],[1,0.5]];portConstraint=eastwest;whiteSpace=wrap;html=1;" vertex="1" parent="Am_2OvD1sLbjYcfCMmoj-73">
          <mxGeometry y="52" width="290" height="26" as="geometry" />
        </mxCell>
        <mxCell id="Am_2OvD1sLbjYcfCMmoj-76" value="-&amp;nbsp; password: String" style="text;strokeColor=none;fillColor=none;align=left;verticalAlign=top;spacingLeft=4;spacingRight=4;overflow=hidden;rotatable=0;points=[[0,0.5],[1,0.5]];portConstraint=eastwest;whiteSpace=wrap;html=1;" vertex="1" parent="Am_2OvD1sLbjYcfCMmoj-73">
          <mxGeometry y="78" width="290" height="26" as="geometry" />
        </mxCell>
        <mxCell id="Am_2OvD1sLbjYcfCMmoj-77" value="-&amp;nbsp; email: String" style="text;strokeColor=none;fillColor=none;align=left;verticalAlign=top;spacingLeft=4;spacingRight=4;overflow=hidden;rotatable=0;points=[[0,0.5],[1,0.5]];portConstraint=eastwest;whiteSpace=wrap;html=1;" vertex="1" parent="Am_2OvD1sLbjYcfCMmoj-73">
          <mxGeometry y="104" width="290" height="26" as="geometry" />
        </mxCell>
        <mxCell id="Am_2OvD1sLbjYcfCMmoj-78" value="" style="line;strokeWidth=1;fillColor=none;align=left;verticalAlign=middle;spacingTop=-1;spacingLeft=3;spacingRight=3;rotatable=0;labelPosition=right;points=[];portConstraint=eastwest;strokeColor=inherit;" vertex="1" parent="Am_2OvD1sLbjYcfCMmoj-73">
          <mxGeometry y="130" width="290" height="10" as="geometry" />
        </mxCell>
        <mxCell id="Am_2OvD1sLbjYcfCMmoj-79" value="+&amp;nbsp; getid(): int" style="text;strokeColor=none;fillColor=none;align=left;verticalAlign=top;spacingLeft=4;spacingRight=4;overflow=hidden;rotatable=0;points=[[0,0.5],[1,0.5]];portConstraint=eastwest;whiteSpace=wrap;html=1;" vertex="1" parent="Am_2OvD1sLbjYcfCMmoj-73">
          <mxGeometry y="140" width="290" height="26" as="geometry" />
        </mxCell>
        <mxCell id="Am_2OvD1sLbjYcfCMmoj-80" value="+&amp;nbsp; getName(): String" style="text;strokeColor=none;fillColor=none;align=left;verticalAlign=top;spacingLeft=4;spacingRight=4;overflow=hidden;rotatable=0;points=[[0,0.5],[1,0.5]];portConstraint=eastwest;whiteSpace=wrap;html=1;" vertex="1" parent="Am_2OvD1sLbjYcfCMmoj-73">
          <mxGeometry y="166" width="290" height="26" as="geometry" />
        </mxCell>
        <mxCell id="Am_2OvD1sLbjYcfCMmoj-81" value="+&amp;nbsp; getEmail(): String" style="text;strokeColor=none;fillColor=none;align=left;verticalAlign=top;spacingLeft=4;spacingRight=4;overflow=hidden;rotatable=0;points=[[0,0.5],[1,0.5]];portConstraint=eastwest;whiteSpace=wrap;html=1;" vertex="1" parent="Am_2OvD1sLbjYcfCMmoj-73">
          <mxGeometry y="192" width="290" height="26" as="geometry" />
        </mxCell>
        <mxCell id="Am_2OvD1sLbjYcfCMmoj-82" value="+&amp;nbsp; login(name:String,password:String): boolean" style="text;strokeColor=none;fillColor=none;align=left;verticalAlign=top;spacingLeft=4;spacingRight=4;overflow=hidden;rotatable=0;points=[[0,0.5],[1,0.5]];portConstraint=eastwest;whiteSpace=wrap;html=1;" vertex="1" parent="Am_2OvD1sLbjYcfCMmoj-73">
          <mxGeometry y="218" width="290" height="22" as="geometry" />
        </mxCell>
        <mxCell id="Am_2OvD1sLbjYcfCMmoj-83" value="使用者介面" style="swimlane;fontStyle=1;align=center;verticalAlign=top;childLayout=stackLayout;horizontal=1;startSize=26;horizontalStack=0;resizeParent=1;resizeParentMax=0;resizeLast=0;collapsible=1;marginBottom=0;whiteSpace=wrap;html=1;" vertex="1" parent="1">
          <mxGeometry x="103" y="448" width="220" height="190" as="geometry" />
        </mxCell>
        <mxCell id="Am_2OvD1sLbjYcfCMmoj-84" value="+&amp;nbsp;&amp;nbsp;&lt;span style=&quot;color: rgba(0, 0, 0, 0); font-family: monospace; font-size: 0px; text-wrap: nowrap;&quot;&gt;%3CmxGraphModel%3E%3Croot%3E%3CmxCell%20id%3D%220%22%2F%3E%3CmxCell%20id%3D%221%22%20parent%3D%220%22%2F%3E%3CmxCell%20id%3D%222%22%20value%3D%22%E4%BD%BF%E7%94%A8%E8%80%85%22%20style%3D%22swimlane%3BfontStyle%3D1%3Balign%3Dcenter%3BverticalAlign%3Dtop%3BchildLayout%3DstackLayout%3Bhorizontal%3D1%3BstartSize%3D26%3BhorizontalStack%3D0%3BresizeParent%3D1%3BresizeParentMax%3D0%3BresizeLast%3D0%3Bcollapsible%3D1%3BmarginBottom%3D0%3BwhiteSpace%3Dwrap%3Bhtml%3D1%3B%22%20vertex%3D%221%22%20parent%3D%221%22%3E%3CmxGeometry%20x%3D%2290%22%20y%3D%22150%22%20width%3D%22290%22%20height%3D%22240%22%20as%3D%22geometry%22%2F%3E%3C%2FmxCell%3E%3CmxCell%20id%3D%223%22%20value%3D%22-%26amp%3Bnbsp%3B%20ID%3A%20int%26lt%3Bdiv%26gt%3B%26lt%3Bbr%26gt%3B%26lt%3B%2Fdiv%26gt%3B%22%20style%3D%22text%3BstrokeColor%3Dnone%3BfillColor%3Dnone%3Balign%3Dleft%3BverticalAlign%3Dtop%3BspacingLeft%3D4%3BspacingRight%3D4%3Boverflow%3Dhidden%3Brotatable%3D0%3Bpoints%3D%5B%5B0%2C0.5%5D%2C%5B1%2C0.5%5D%5D%3BportConstraint%3Deastwest%3BwhiteSpace%3Dwrap%3Bhtml%3D1%3B%22%20vertex%3D%221%22%20parent%3D%222%22%3E%3CmxGeometry%20y%3D%2226%22%20width%3D%22290%22%20height%3D%2226%22%20as%3D%22geometry%22%2F%3E%3C%2FmxCell%3E%3CmxCell%20id%3D%224%22%20value%3D%22-%26amp%3Bnbsp%3B%20name%3A%20String%22%20style%3D%22text%3BstrokeColor%3Dnone%3BfillColor%3Dnone%3Balign%3Dleft%3BverticalAlign%3Dtop%3BspacingLeft%3D4%3BspacingRight%3D4%3Boverflow%3Dhidden%3Brotatable%3D0%3Bpoints%3D%5B%5B0%2C0.5%5D%2C%5B1%2C0.5%5D%5D%3BportConstraint%3Deastwest%3BwhiteSpace%3Dwrap%3Bhtml%3D1%3B%22%20vertex%3D%221%22%20parent%3D%222%22%3E%3CmxGeometry%20y%3D%2252%22%20width%3D%22290%22%20height%3D%2226%22%20as%3D%22geometry%22%2F%3E%3C%2FmxCell%3E%3CmxCell%20id%3D%225%22%20value%3D%22-%26amp%3Bnbsp%3B%20password%3A%20String%22%20style%3D%22text%3BstrokeColor%3Dnone%3BfillColor%3Dnone%3Balign%3Dleft%3BverticalAlign%3Dtop%3BspacingLeft%3D4%3BspacingRight%3D4%3Boverflow%3Dhidden%3Brotatable%3D0%3Bpoints%3D%5B%5B0%2C0.5%5D%2C%5B1%2C0.5%5D%5D%3BportConstraint%3Deastwest%3BwhiteSpace%3Dwrap%3Bhtml%3D1%3B%22%20vertex%3D%221%22%20parent%3D%222%22%3E%3CmxGeometry%20y%3D%2278%22%20width%3D%22290%22%20height%3D%2226%22%20as%3D%22geometry%22%2F%3E%3C%2FmxCell%3E%3CmxCell%20id%3D%226%22%20value%3D%22-%26amp%3Bnbsp%3B%20email%3A%20String%22%20style%3D%22text%3BstrokeColor%3Dnone%3BfillColor%3Dnone%3Balign%3Dleft%3BverticalAlign%3Dtop%3BspacingLeft%3D4%3BspacingRight%3D4%3Boverflow%3Dhidden%3Brotatable%3D0%3Bpoints%3D%5B%5B0%2C0.5%5D%2C%5B1%2C0.5%5D%5D%3BportConstraint%3Deastwest%3BwhiteSpace%3Dwrap%3Bhtml%3D1%3B%22%20vertex%3D%221%22%20parent%3D%222%22%3E%3CmxGeometry%20y%3D%22104%22%20width%3D%22290%22%20height%3D%2226%22%20as%3D%22geometry%22%2F%3E%3C%2FmxCell%3E%3CmxCell%20id%3D%227%22%20value%3D%22%22%20style%3D%22line%3BstrokeWidth%3D1%3BfillColor%3Dnone%3Balign%3Dleft%3BverticalAlign%3Dmiddle%3BspacingTop%3D-1%3BspacingLeft%3D3%3BspacingRight%3D3%3Brotatable%3D0%3BlabelPosition%3Dright%3Bpoints%3D%5B%5D%3BportConstraint%3Deastwest%3BstrokeColor%3Dinherit%3B%22%20vertex%3D%221%22%20parent%3D%222%22%3E%3CmxGeometry%20y%3D%22130%22%20width%3D%22290%22%20height%3D%2210%22%20as%3D%22geometry%22%2F%3E%3C%2FmxCell%3E%3CmxCell%20id%3D%228%22%20value%3D%22%2B%26amp%3Bnbsp%3B%20getid()%3A%20int%22%20style%3D%22text%3BstrokeColor%3Dnone%3BfillColor%3Dnone%3Balign%3Dleft%3BverticalAlign%3Dtop%3BspacingLeft%3D4%3BspacingRight%3D4%3Boverflow%3Dhidden%3Brotatable%3D0%3Bpoints%3D%5B%5B0%2C0.5%5D%2C%5B1%2C0.5%5D%5D%3BportConstraint%3Deastwest%3BwhiteSpace%3Dwrap%3Bhtml%3D1%3B%22%20vertex%3D%221%22%20parent%3D%222%22%3E%3CmxGeometry%20y%3D%22140%22%20width%3D%22290%22%20height%3D%2226%22%20as%3D%22geometry%22%2F%3E%3C%2FmxCell%3E%3CmxCell%20id%3D%229%22%20value%3D%22%2B%26amp%3Bnbsp%3B%20getName()%3A%20String%22%20style%3D%22text%3BstrokeColor%3Dnone%3BfillColor%3Dnone%3Balign%3Dleft%3BverticalAlign%3Dtop%3BspacingLeft%3D4%3BspacingRight%3D4%3Boverflow%3Dhidden%3Brotatable%3D0%3Bpoints%3D%5B%5B0%2C0.5%5D%2C%5B1%2C0.5%5D%5D%3BportConstraint%3Deastwest%3BwhiteSpace%3Dwrap%3Bhtml%3D1%3B%22%20vertex%3D%221%22%20parent%3D%222%22%3E%3CmxGeometry%20y%3D%22166%22%20width%3D%22290%22%20height%3D%2226%22%20as%3D%22geometry%22%2F%3E%3C%2FmxCell%3E%3CmxCell%20id%3D%2210%22%20value%3D%22%2B%26amp%3Bnbsp%3B%20getEmail()%3A%20String%22%20style%3D%22text%3BstrokeColor%3Dnone%3BfillColor%3Dnone%3Balign%3Dleft%3BverticalAlign%3Dtop%3BspacingLeft%3D4%3BspacingRight%3D4%3Boverflow%3Dhidden%3Brotatable%3D0%3Bpoints%3D%5B%5B0%2C0.5%5D%2C%5B1%2C0.5%5D%5D%3BportConstraint%3Deastwest%3BwhiteSpace%3Dwrap%3Bhtml%3D1%3B%22%20vertex%3D%221%22%20parent%3D%222%22%3E%3CmxGeometry%20y%3D%22192%22%20width%3D%22290%22%20height%3D%2226%22%20as%3D%22geometry%22%2F%3E%3C%2FmxCell%3E%3CmxCell%20id%3D%2211%22%20value%3D%22%2B%26amp%3Bnbsp%3B%20login(name%3AString%2Cpassword%3AString)%3A%20boolean%22%20style%3D%22text%3BstrokeColor%3Dnone%3BfillColor%3Dnone%3Balign%3Dleft%3BverticalAlign%3Dtop%3BspacingLeft%3D4%3BspacingRight%3D4%3Boverflow%3Dhidden%3Brotatable%3D0%3Bpoints%3D%5B%5B0%2C0.5%5D%2C%5B1%2C0.5%5D%5D%3BportConstraint%3Deastwest%3BwhiteSpace%3Dwrap%3Bhtml%3D1%3B%22%20vertex%3D%221%22%20parent%3D%222%22%3E%3CmxGeometry%20y%3D%22218%22%20width%3D%22290%22%20height%3D%2222%22%20as%3D%22geometry%22%2F%3E%3C%2FmxCell%3E%3C%2Froot%3E%3C%2FmxGraphModel%3E&lt;/span&gt;&lt;span style=&quot;text-align: center; text-wrap: nowrap; background-color: rgb(255, 255, 255);&quot;&gt;&lt;font style=&quot;font-size: 12px;&quot;&gt;EnterRegisterSystem()&lt;/font&gt;&lt;/span&gt;" style="text;strokeColor=none;fillColor=none;align=left;verticalAlign=top;spacingLeft=4;spacingRight=4;overflow=hidden;rotatable=0;points=[[0,0.5],[1,0.5]];portConstraint=eastwest;whiteSpace=wrap;html=1;" vertex="1" parent="Am_2OvD1sLbjYcfCMmoj-83">
          <mxGeometry y="26" width="220" height="26" as="geometry" />
        </mxCell>
        <mxCell id="Am_2OvD1sLbjYcfCMmoj-85" value="+&amp;nbsp;&amp;nbsp;&lt;span style=&quot;text-align: center; text-wrap: nowrap; background-color: rgb(255, 255, 255);&quot;&gt;&lt;font style=&quot;font-size: 12px;&quot;&gt;EnterLoginSystem()&lt;/font&gt;&lt;/span&gt;" style="text;strokeColor=none;fillColor=none;align=left;verticalAlign=top;spacingLeft=4;spacingRight=4;overflow=hidden;rotatable=0;points=[[0,0.5],[1,0.5]];portConstraint=eastwest;whiteSpace=wrap;html=1;" vertex="1" parent="Am_2OvD1sLbjYcfCMmoj-83">
          <mxGeometry y="52" width="220" height="26" as="geometry" />
        </mxCell>
        <mxCell id="Am_2OvD1sLbjYcfCMmoj-86" value="&lt;font style=&quot;font-size: 12px;&quot;&gt;+&amp;nbsp;&amp;nbsp;&lt;span style=&quot;text-align: center; text-wrap: nowrap; background-color: rgb(255, 255, 255);&quot;&gt;EnterForget&lt;/span&gt;&lt;span style=&quot;text-align: center; text-wrap: nowrap; background-color: initial;&quot;&gt;PasswordSystem()&lt;/span&gt;&lt;/font&gt;" style="text;strokeColor=none;fillColor=none;align=left;verticalAlign=top;spacingLeft=4;spacingRight=4;overflow=hidden;rotatable=0;points=[[0,0.5],[1,0.5]];portConstraint=eastwest;whiteSpace=wrap;html=1;" vertex="1" parent="Am_2OvD1sLbjYcfCMmoj-83">
          <mxGeometry y="78" width="220" height="26" as="geometry" />
        </mxCell>
        <mxCell id="Am_2OvD1sLbjYcfCMmoj-87" value="&lt;font style=&quot;font-size: 12px;&quot;&gt;+&amp;nbsp;&amp;nbsp;&lt;span style=&quot;text-align: center; text-wrap: nowrap; background-color: rgb(255, 255, 255);&quot;&gt;EnterSearchAnd&lt;/span&gt;&lt;span style=&quot;text-align: center; text-wrap: nowrap; background-color: initial;&quot;&gt;NavigationSystem()&lt;/span&gt;&lt;/font&gt;" style="text;strokeColor=none;fillColor=none;align=left;verticalAlign=top;spacingLeft=4;spacingRight=4;overflow=hidden;rotatable=0;points=[[0,0.5],[1,0.5]];portConstraint=eastwest;whiteSpace=wrap;html=1;" vertex="1" parent="Am_2OvD1sLbjYcfCMmoj-83">
          <mxGeometry y="104" width="220" height="26" as="geometry" />
        </mxCell>
        <mxCell id="Am_2OvD1sLbjYcfCMmoj-88" value="&lt;font style=&quot;font-size: 12px;&quot;&gt;+&amp;nbsp;&amp;nbsp;&lt;span style=&quot;text-align: center; text-wrap: nowrap; background-color: rgb(255, 255, 255);&quot;&gt;EnterFavorite&lt;/span&gt;&lt;span style=&quot;text-align: center; text-wrap: nowrap; background-color: initial;&quot;&gt;RouteSystem()&lt;/span&gt;&lt;/font&gt;" style="text;strokeColor=none;fillColor=none;align=left;verticalAlign=top;spacingLeft=4;spacingRight=4;overflow=hidden;rotatable=0;points=[[0,0.5],[1,0.5]];portConstraint=eastwest;whiteSpace=wrap;html=1;" vertex="1" parent="Am_2OvD1sLbjYcfCMmoj-83">
          <mxGeometry y="130" width="220" height="30" as="geometry" />
        </mxCell>
        <mxCell id="Am_2OvD1sLbjYcfCMmoj-89" value="&lt;font style=&quot;font-size: 12px;&quot;&gt;&lt;font style=&quot;font-size: 12px;&quot;&gt;+&amp;nbsp;&amp;nbsp;&lt;/font&gt;&lt;span style=&quot;text-align: center; text-wrap: nowrap; background-color: rgb(255, 255, 255);&quot;&gt;EnterMileageSystem()&lt;/span&gt;&lt;/font&gt;" style="text;strokeColor=none;fillColor=none;align=left;verticalAlign=top;spacingLeft=4;spacingRight=4;overflow=hidden;rotatable=0;points=[[0,0.5],[1,0.5]];portConstraint=eastwest;whiteSpace=wrap;html=1;" vertex="1" parent="Am_2OvD1sLbjYcfCMmoj-83">
          <mxGeometry y="160" width="220" height="30" as="geometry" />
        </mxCell>
        <mxCell id="Am_2OvD1sLbjYcfCMmoj-90" value="註冊介面" style="swimlane;fontStyle=1;align=center;verticalAlign=top;childLayout=stackLayout;horizontal=1;startSize=26;horizontalStack=0;resizeParent=1;resizeParentMax=0;resizeLast=0;collapsible=1;marginBottom=0;whiteSpace=wrap;html=1;" vertex="1" parent="1">
          <mxGeometry x="454" y="150" width="240" height="78" as="geometry" />
        </mxCell>
        <mxCell id="Am_2OvD1sLbjYcfCMmoj-91" value="&lt;font style=&quot;font-size: 12px;&quot;&gt;+&amp;nbsp;&amp;nbsp;&lt;span style=&quot;text-align: center; text-wrap: nowrap; background-color: rgb(255, 255, 255);&quot;&gt;ClickRegisterButton()&lt;/span&gt;&lt;/font&gt;" style="text;strokeColor=none;fillColor=none;align=left;verticalAlign=top;spacingLeft=4;spacingRight=4;overflow=hidden;rotatable=0;points=[[0,0.5],[1,0.5]];portConstraint=eastwest;whiteSpace=wrap;html=1;" vertex="1" parent="Am_2OvD1sLbjYcfCMmoj-90">
          <mxGeometry y="26" width="240" height="26" as="geometry" />
        </mxCell>
        <mxCell id="Am_2OvD1sLbjYcfCMmoj-92" value="&lt;font style=&quot;font-size: 12px;&quot;&gt;+&amp;nbsp;&amp;nbsp;&lt;span style=&quot;text-align: center; text-wrap: nowrap; background-color: rgb(255, 255, 255);&quot;&gt;Register(account,&lt;/span&gt;&lt;span style=&quot;text-align: center; text-wrap: nowrap; background-color: initial;&quot;&gt;password,name,Email)&lt;/span&gt;&lt;/font&gt;" style="text;strokeColor=none;fillColor=none;align=left;verticalAlign=top;spacingLeft=4;spacingRight=4;overflow=hidden;rotatable=0;points=[[0,0.5],[1,0.5]];portConstraint=eastwest;whiteSpace=wrap;html=1;" vertex="1" parent="Am_2OvD1sLbjYcfCMmoj-90">
          <mxGeometry y="52" width="240" height="26" as="geometry" />
        </mxCell>
        <mxCell id="Am_2OvD1sLbjYcfCMmoj-93" value="最愛路線介面" style="swimlane;fontStyle=1;align=center;verticalAlign=top;childLayout=stackLayout;horizontal=1;startSize=26;horizontalStack=0;resizeParent=1;resizeParentMax=0;resizeLast=0;collapsible=1;marginBottom=0;whiteSpace=wrap;html=1;" vertex="1" parent="1">
          <mxGeometry x="454" y="690" width="200" height="104" as="geometry" />
        </mxCell>
        <mxCell id="Am_2OvD1sLbjYcfCMmoj-94" value="&lt;font style=&quot;font-size: 12px;&quot;&gt;+&amp;nbsp;&amp;nbsp;&lt;span style=&quot;text-align: center; text-wrap: nowrap; background-color: rgb(255, 255, 255);&quot;&gt;clickAddFavoriteRouteButton()&lt;/span&gt;&lt;/font&gt;" style="text;strokeColor=none;fillColor=none;align=left;verticalAlign=top;spacingLeft=4;spacingRight=4;overflow=hidden;rotatable=0;points=[[0,0.5],[1,0.5]];portConstraint=eastwest;whiteSpace=wrap;html=1;" vertex="1" parent="Am_2OvD1sLbjYcfCMmoj-93">
          <mxGeometry y="26" width="200" height="26" as="geometry" />
        </mxCell>
        <mxCell id="Am_2OvD1sLbjYcfCMmoj-95" value="&lt;font style=&quot;font-size: 12px;&quot;&gt;+&amp;nbsp;&amp;nbsp;&lt;span style=&quot;text-align: center; text-wrap: nowrap; background-color: rgb(255, 255, 255);&quot;&gt;ClickCreat&lt;/span&gt;&lt;span style=&quot;text-align: center; text-wrap: nowrap; background-color: initial;&quot;&gt;FavoriteRouteButton()&lt;/span&gt;&lt;/font&gt;" style="text;strokeColor=none;fillColor=none;align=left;verticalAlign=top;spacingLeft=4;spacingRight=4;overflow=hidden;rotatable=0;points=[[0,0.5],[1,0.5]];portConstraint=eastwest;whiteSpace=wrap;html=1;" vertex="1" parent="Am_2OvD1sLbjYcfCMmoj-93">
          <mxGeometry y="52" width="200" height="26" as="geometry" />
        </mxCell>
        <mxCell id="Am_2OvD1sLbjYcfCMmoj-96" value="&lt;font style=&quot;font-size: 12px;&quot;&gt;+&amp;nbsp;&amp;nbsp;&lt;span style=&quot;text-align: center; text-wrap: nowrap; background-color: rgb(255, 255, 255);&quot;&gt;SendConsent&lt;/span&gt;&lt;span style=&quot;text-align: center; text-wrap: nowrap; background-color: initial;&quot;&gt;Button()&lt;/span&gt;&lt;/font&gt;" style="text;strokeColor=none;fillColor=none;align=left;verticalAlign=top;spacingLeft=4;spacingRight=4;overflow=hidden;rotatable=0;points=[[0,0.5],[1,0.5]];portConstraint=eastwest;whiteSpace=wrap;html=1;" vertex="1" parent="Am_2OvD1sLbjYcfCMmoj-93">
          <mxGeometry y="78" width="200" height="26" as="geometry" />
        </mxCell>
        <mxCell id="Am_2OvD1sLbjYcfCMmoj-97" value="導航介面" style="swimlane;fontStyle=1;align=center;verticalAlign=top;childLayout=stackLayout;horizontal=1;startSize=26;horizontalStack=0;resizeParent=1;resizeParentMax=0;resizeLast=0;collapsible=1;marginBottom=0;whiteSpace=wrap;html=1;" vertex="1" parent="1">
          <mxGeometry x="454" y="448" width="240" height="104" as="geometry" />
        </mxCell>
        <mxCell id="Am_2OvD1sLbjYcfCMmoj-98" value="&lt;font style=&quot;font-size: 12px;&quot;&gt;+&amp;nbsp;&amp;nbsp;&lt;span style=&quot;text-align: center; text-wrap: nowrap; background-color: rgb(255, 255, 255);&quot;&gt;RouteSelection()&lt;/span&gt;&lt;/font&gt;" style="text;strokeColor=none;fillColor=none;align=left;verticalAlign=top;spacingLeft=4;spacingRight=4;overflow=hidden;rotatable=0;points=[[0,0.5],[1,0.5]];portConstraint=eastwest;whiteSpace=wrap;html=1;" vertex="1" parent="Am_2OvD1sLbjYcfCMmoj-97">
          <mxGeometry y="26" width="240" height="26" as="geometry" />
        </mxCell>
        <mxCell id="Am_2OvD1sLbjYcfCMmoj-99" value="&lt;font style=&quot;font-size: 12px;&quot;&gt;+&amp;nbsp;&amp;nbsp;&lt;span style=&quot;text-align: center; text-wrap: nowrap; background-color: rgb(255, 255, 255);&quot;&gt;clickAgreeExcludeAccidentAreaButton()&lt;/span&gt;&lt;/font&gt;" style="text;strokeColor=none;fillColor=none;align=left;verticalAlign=top;spacingLeft=4;spacingRight=4;overflow=hidden;rotatable=0;points=[[0,0.5],[1,0.5]];portConstraint=eastwest;whiteSpace=wrap;html=1;" vertex="1" parent="Am_2OvD1sLbjYcfCMmoj-97">
          <mxGeometry y="52" width="240" height="26" as="geometry" />
        </mxCell>
        <mxCell id="Am_2OvD1sLbjYcfCMmoj-100" value="&lt;font style=&quot;font-size: 12px;&quot;&gt;+&amp;nbsp;&amp;nbsp;&lt;span style=&quot;text-align: center; text-wrap: nowrap; background-color: rgb(255, 255, 255);&quot;&gt;clickStartNavigation()&lt;/span&gt;&lt;/font&gt;" style="text;strokeColor=none;fillColor=none;align=left;verticalAlign=top;spacingLeft=4;spacingRight=4;overflow=hidden;rotatable=0;points=[[0,0.5],[1,0.5]];portConstraint=eastwest;whiteSpace=wrap;html=1;" vertex="1" parent="Am_2OvD1sLbjYcfCMmoj-97">
          <mxGeometry y="78" width="240" height="26" as="geometry" />
        </mxCell>
        <mxCell id="Am_2OvD1sLbjYcfCMmoj-101" value="登入介面" style="swimlane;fontStyle=1;align=center;verticalAlign=top;childLayout=stackLayout;horizontal=1;startSize=26;horizontalStack=0;resizeParent=1;resizeParentMax=0;resizeLast=0;collapsible=1;marginBottom=0;whiteSpace=wrap;html=1;" vertex="1" parent="1">
          <mxGeometry x="454" y="252" width="160" height="78" as="geometry" />
        </mxCell>
        <mxCell id="Am_2OvD1sLbjYcfCMmoj-102" value="&lt;font style=&quot;font-size: 12px;&quot;&gt;+&amp;nbsp;&amp;nbsp;&lt;span style=&quot;text-align: center; text-wrap: nowrap; background-color: rgb(255, 255, 255);&quot;&gt;ClickLoginButton()&lt;/span&gt;&lt;/font&gt;" style="text;strokeColor=none;fillColor=none;align=left;verticalAlign=top;spacingLeft=4;spacingRight=4;overflow=hidden;rotatable=0;points=[[0,0.5],[1,0.5]];portConstraint=eastwest;whiteSpace=wrap;html=1;" vertex="1" parent="Am_2OvD1sLbjYcfCMmoj-101">
          <mxGeometry y="26" width="160" height="26" as="geometry" />
        </mxCell>
        <mxCell id="Am_2OvD1sLbjYcfCMmoj-103" value="&lt;font style=&quot;font-size: 12px;&quot;&gt;+&amp;nbsp;&amp;nbsp;&lt;span style=&quot;text-align: center; text-wrap: nowrap; background-color: rgb(255, 255, 255);&quot;&gt;Login(account,&lt;/span&gt;&lt;span style=&quot;text-align: center; text-wrap: nowrap; background-color: initial;&quot;&gt;password)&lt;/span&gt;&lt;/font&gt;" style="text;strokeColor=none;fillColor=none;align=left;verticalAlign=top;spacingLeft=4;spacingRight=4;overflow=hidden;rotatable=0;points=[[0,0.5],[1,0.5]];portConstraint=eastwest;whiteSpace=wrap;html=1;" vertex="1" parent="Am_2OvD1sLbjYcfCMmoj-101">
          <mxGeometry y="52" width="160" height="26" as="geometry" />
        </mxCell>
        <mxCell id="Am_2OvD1sLbjYcfCMmoj-104" value="里程介面" style="swimlane;fontStyle=1;align=center;verticalAlign=top;childLayout=stackLayout;horizontal=1;startSize=26;horizontalStack=0;resizeParent=1;resizeParentMax=0;resizeLast=0;collapsible=1;marginBottom=0;whiteSpace=wrap;html=1;" vertex="1" parent="1">
          <mxGeometry x="454" y="820" width="220" height="78" as="geometry" />
        </mxCell>
        <mxCell id="Am_2OvD1sLbjYcfCMmoj-105" value="&lt;font style=&quot;font-size: 12px;&quot;&gt;+&amp;nbsp;&amp;nbsp;&lt;span style=&quot;text-align: center; text-wrap: nowrap; background-color: rgb(255, 255, 255);&quot;&gt;ClickMileageSetting()&lt;/span&gt;&lt;/font&gt;" style="text;strokeColor=none;fillColor=none;align=left;verticalAlign=top;spacingLeft=4;spacingRight=4;overflow=hidden;rotatable=0;points=[[0,0.5],[1,0.5]];portConstraint=eastwest;whiteSpace=wrap;html=1;" vertex="1" parent="Am_2OvD1sLbjYcfCMmoj-104">
          <mxGeometry y="26" width="220" height="26" as="geometry" />
        </mxCell>
        <mxCell id="Am_2OvD1sLbjYcfCMmoj-106" value="&lt;font style=&quot;font-size: 12px;&quot;&gt;+&amp;nbsp;&amp;nbsp;&lt;span style=&quot;text-align: center; text-wrap: nowrap; background-color: rgb(255, 255, 255);&quot;&gt;ClickAgreeCalculate&lt;/span&gt;&lt;/font&gt;&lt;span style=&quot;text-align: center; text-wrap: nowrap; background-color: initial;&quot;&gt;MileageButton()&lt;/span&gt;" style="text;strokeColor=none;fillColor=none;align=left;verticalAlign=top;spacingLeft=4;spacingRight=4;overflow=hidden;rotatable=0;points=[[0,0.5],[1,0.5]];portConstraint=eastwest;whiteSpace=wrap;html=1;" vertex="1" parent="Am_2OvD1sLbjYcfCMmoj-104">
          <mxGeometry y="52" width="220" height="26" as="geometry" />
        </mxCell>
        <mxCell id="Am_2OvD1sLbjYcfCMmoj-107" value="忘記密碼介面" style="swimlane;fontStyle=1;align=center;verticalAlign=top;childLayout=stackLayout;horizontal=1;startSize=26;horizontalStack=0;resizeParent=1;resizeParentMax=0;resizeLast=0;collapsible=1;marginBottom=0;whiteSpace=wrap;html=1;" vertex="1" parent="1">
          <mxGeometry x="660" y="265" width="180" height="52" as="geometry" />
        </mxCell>
        <mxCell id="Am_2OvD1sLbjYcfCMmoj-108" value="&lt;font style=&quot;font-size: 12px;&quot;&gt;+&amp;nbsp;&amp;nbsp;&lt;span style=&quot;text-align: center; text-wrap: nowrap; background-color: rgb(255, 255, 255);&quot;&gt;ClickForgetPasswordButton()&lt;/span&gt;&lt;/font&gt;" style="text;strokeColor=none;fillColor=none;align=left;verticalAlign=top;spacingLeft=4;spacingRight=4;overflow=hidden;rotatable=0;points=[[0,0.5],[1,0.5]];portConstraint=eastwest;whiteSpace=wrap;html=1;" vertex="1" parent="Am_2OvD1sLbjYcfCMmoj-107">
          <mxGeometry y="26" width="180" height="26" as="geometry" />
        </mxCell>
        <mxCell id="Am_2OvD1sLbjYcfCMmoj-109" value="修改資料介面" style="swimlane;fontStyle=1;align=center;verticalAlign=top;childLayout=stackLayout;horizontal=1;startSize=26;horizontalStack=0;resizeParent=1;resizeParentMax=0;resizeLast=0;collapsible=1;marginBottom=0;whiteSpace=wrap;html=1;" vertex="1" parent="1">
          <mxGeometry x="454" y="360" width="290" height="78" as="geometry" />
        </mxCell>
        <mxCell id="Am_2OvD1sLbjYcfCMmoj-110" value="&lt;font style=&quot;font-size: 12px;&quot;&gt;+&amp;nbsp;&amp;nbsp;&lt;span style=&quot;text-align: center; text-wrap: nowrap; background-color: rgb(255, 255, 255);&quot;&gt;ClickModifyInformationButton()&lt;/span&gt;&lt;/font&gt;" style="text;strokeColor=none;fillColor=none;align=left;verticalAlign=top;spacingLeft=4;spacingRight=4;overflow=hidden;rotatable=0;points=[[0,0.5],[1,0.5]];portConstraint=eastwest;whiteSpace=wrap;html=1;" vertex="1" parent="Am_2OvD1sLbjYcfCMmoj-109">
          <mxGeometry y="26" width="290" height="26" as="geometry" />
        </mxCell>
        <mxCell id="Am_2OvD1sLbjYcfCMmoj-111" value="&lt;font style=&quot;font-size: 12px;&quot;&gt;+&amp;nbsp;&amp;nbsp;&lt;span style=&quot;text-align: center; text-wrap: nowrap; background-color: rgb(255, 255, 255);&quot;&gt;ModifyInformation(account,password,name,Email)&lt;/span&gt;&lt;/font&gt;" style="text;strokeColor=none;fillColor=none;align=left;verticalAlign=top;spacingLeft=4;spacingRight=4;overflow=hidden;rotatable=0;points=[[0,0.5],[1,0.5]];portConstraint=eastwest;whiteSpace=wrap;html=1;" vertex="1" parent="Am_2OvD1sLbjYcfCMmoj-109">
          <mxGeometry y="52" width="290" height="26" as="geometry" />
        </mxCell>
        <mxCell id="Am_2OvD1sLbjYcfCMmoj-112" value="歷史路線" style="swimlane;fontStyle=0;childLayout=stackLayout;horizontal=1;startSize=26;fillColor=none;horizontalStack=0;resizeParent=1;resizeParentMax=0;resizeLast=0;collapsible=1;marginBottom=0;whiteSpace=wrap;html=1;" vertex="1" parent="1">
          <mxGeometry x="960" y="780" width="160" height="104" as="geometry" />
        </mxCell>
        <mxCell id="Am_2OvD1sLbjYcfCMmoj-113" value="-&amp;nbsp; RouteID():int" style="text;strokeColor=none;fillColor=none;align=left;verticalAlign=top;spacingLeft=4;spacingRight=4;overflow=hidden;rotatable=0;points=[[0,0.5],[1,0.5]];portConstraint=eastwest;whiteSpace=wrap;html=1;" vertex="1" parent="Am_2OvD1sLbjYcfCMmoj-112">
          <mxGeometry y="26" width="160" height="26" as="geometry" />
        </mxCell>
        <mxCell id="Am_2OvD1sLbjYcfCMmoj-114" value="&lt;font style=&quot;font-size: 12px;&quot;&gt;-&amp;nbsp;&amp;nbsp;&lt;span style=&quot;color: rgb(32, 33, 36); font-family: inherit;&quot;&gt;NavigationHistoryID():int&lt;/span&gt;&lt;/font&gt;" style="text;strokeColor=none;fillColor=none;align=left;verticalAlign=top;spacingLeft=4;spacingRight=4;overflow=hidden;rotatable=0;points=[[0,0.5],[1,0.5]];portConstraint=eastwest;whiteSpace=wrap;html=1;" vertex="1" parent="Am_2OvD1sLbjYcfCMmoj-112">
          <mxGeometry y="52" width="160" height="26" as="geometry" />
        </mxCell>
        <mxCell id="Am_2OvD1sLbjYcfCMmoj-115" value="&lt;font style=&quot;font-size: 12px;&quot;&gt;&lt;span style=&quot;text-align: center; text-wrap: nowrap;&quot;&gt;&lt;font style=&quot;font-size: 12px;&quot;&gt;-&amp;nbsp;&amp;nbsp;&lt;/font&gt;&lt;/span&gt;&lt;span style=&quot;color: rgb(32, 33, 36); font-family: inherit;&quot;&gt;historicalRoute():String&lt;/span&gt;&lt;/font&gt;" style="text;strokeColor=none;fillColor=none;align=left;verticalAlign=top;spacingLeft=4;spacingRight=4;overflow=hidden;rotatable=0;points=[[0,0.5],[1,0.5]];portConstraint=eastwest;whiteSpace=wrap;html=1;" vertex="1" parent="Am_2OvD1sLbjYcfCMmoj-112">
          <mxGeometry y="78" width="160" height="26" as="geometry" />
        </mxCell>
        <mxCell id="Am_2OvD1sLbjYcfCMmoj-116" value="路線" style="swimlane;fontStyle=0;childLayout=stackLayout;horizontal=1;startSize=26;fillColor=none;horizontalStack=0;resizeParent=1;resizeParentMax=0;resizeLast=0;collapsible=1;marginBottom=0;whiteSpace=wrap;html=1;" vertex="1" parent="1">
          <mxGeometry x="920" y="560" width="240" height="182" as="geometry" />
        </mxCell>
        <mxCell id="Am_2OvD1sLbjYcfCMmoj-117" value="-&amp;nbsp; RouteID():int" style="text;strokeColor=none;fillColor=none;align=left;verticalAlign=top;spacingLeft=4;spacingRight=4;overflow=hidden;rotatable=0;points=[[0,0.5],[1,0.5]];portConstraint=eastwest;whiteSpace=wrap;html=1;" vertex="1" parent="Am_2OvD1sLbjYcfCMmoj-116">
          <mxGeometry y="26" width="240" height="26" as="geometry" />
        </mxCell>
        <mxCell id="Am_2OvD1sLbjYcfCMmoj-118" value="-&amp;nbsp; RouteName():String" style="text;strokeColor=none;fillColor=none;align=left;verticalAlign=top;spacingLeft=4;spacingRight=4;overflow=hidden;rotatable=0;points=[[0,0.5],[1,0.5]];portConstraint=eastwest;whiteSpace=wrap;html=1;" vertex="1" parent="Am_2OvD1sLbjYcfCMmoj-116">
          <mxGeometry y="52" width="240" height="26" as="geometry" />
        </mxCell>
        <mxCell id="Am_2OvD1sLbjYcfCMmoj-119" value="-&amp;nbsp; OftenRoute():String" style="text;strokeColor=none;fillColor=none;align=left;verticalAlign=top;spacingLeft=4;spacingRight=4;overflow=hidden;rotatable=0;points=[[0,0.5],[1,0.5]];portConstraint=eastwest;whiteSpace=wrap;html=1;" vertex="1" parent="Am_2OvD1sLbjYcfCMmoj-116">
          <mxGeometry y="78" width="240" height="26" as="geometry" />
        </mxCell>
        <mxCell id="Am_2OvD1sLbjYcfCMmoj-120" value="&lt;font style=&quot;font-size: 12px;&quot;&gt;-&amp;nbsp; C&lt;span style=&quot;color: rgb(32, 33, 36); font-family: inherit;&quot;&gt;ommutingRoute():String&lt;/span&gt;&lt;/font&gt;" style="text;strokeColor=none;fillColor=none;align=left;verticalAlign=top;spacingLeft=4;spacingRight=4;overflow=hidden;rotatable=0;points=[[0,0.5],[1,0.5]];portConstraint=eastwest;whiteSpace=wrap;html=1;" vertex="1" parent="Am_2OvD1sLbjYcfCMmoj-116">
          <mxGeometry y="104" width="240" height="26" as="geometry" />
        </mxCell>
        <mxCell id="Am_2OvD1sLbjYcfCMmoj-121" value="&lt;font style=&quot;font-size: 12px;&quot;&gt;-&amp;nbsp;&amp;nbsp;&lt;span style=&quot;color: rgb(32, 33, 36); font-family: inherit;&quot;&gt;LeisureRoute():String&lt;/span&gt;&lt;/font&gt;" style="text;strokeColor=none;fillColor=none;align=left;verticalAlign=top;spacingLeft=4;spacingRight=4;overflow=hidden;rotatable=0;points=[[0,0.5],[1,0.5]];portConstraint=eastwest;whiteSpace=wrap;html=1;" vertex="1" parent="Am_2OvD1sLbjYcfCMmoj-116">
          <mxGeometry y="130" width="240" height="26" as="geometry" />
        </mxCell>
        <mxCell id="Am_2OvD1sLbjYcfCMmoj-122" value="&lt;span style=&quot;text-align: center; text-wrap: nowrap; background-color: rgb(255, 255, 255);&quot;&gt;&lt;font style=&quot;font-size: 12px;&quot;&gt;-&amp;nbsp; OftenExcludeAccidentAreaRoute():String&lt;/font&gt;&lt;/span&gt;" style="text;strokeColor=none;fillColor=none;align=left;verticalAlign=top;spacingLeft=4;spacingRight=4;overflow=hidden;rotatable=0;points=[[0,0.5],[1,0.5]];portConstraint=eastwest;whiteSpace=wrap;html=1;" vertex="1" parent="Am_2OvD1sLbjYcfCMmoj-116">
          <mxGeometry y="156" width="240" height="26" as="geometry" />
        </mxCell>
        <mxCell id="Am_2OvD1sLbjYcfCMmoj-123" value="最愛路線" style="swimlane;fontStyle=0;childLayout=stackLayout;horizontal=1;startSize=26;fillColor=none;horizontalStack=0;resizeParent=1;resizeParentMax=0;resizeLast=0;collapsible=1;marginBottom=0;whiteSpace=wrap;html=1;" vertex="1" parent="1">
          <mxGeometry x="710" y="780" width="180" height="104" as="geometry" />
        </mxCell>
        <mxCell id="Am_2OvD1sLbjYcfCMmoj-124" value="-&amp;nbsp; RouteID():int" style="text;strokeColor=none;fillColor=none;align=left;verticalAlign=top;spacingLeft=4;spacingRight=4;overflow=hidden;rotatable=0;points=[[0,0.5],[1,0.5]];portConstraint=eastwest;whiteSpace=wrap;html=1;" vertex="1" parent="Am_2OvD1sLbjYcfCMmoj-123">
          <mxGeometry y="26" width="180" height="26" as="geometry" />
        </mxCell>
        <mxCell id="Am_2OvD1sLbjYcfCMmoj-125" value="-&amp;nbsp; FavoriteRouteID():int" style="text;strokeColor=none;fillColor=none;align=left;verticalAlign=top;spacingLeft=4;spacingRight=4;overflow=hidden;rotatable=0;points=[[0,0.5],[1,0.5]];portConstraint=eastwest;whiteSpace=wrap;html=1;" vertex="1" parent="Am_2OvD1sLbjYcfCMmoj-123">
          <mxGeometry y="52" width="180" height="26" as="geometry" />
        </mxCell>
        <mxCell id="Am_2OvD1sLbjYcfCMmoj-126" value="-&amp;nbsp; FavoriteRouteName():String" style="text;strokeColor=none;fillColor=none;align=left;verticalAlign=top;spacingLeft=4;spacingRight=4;overflow=hidden;rotatable=0;points=[[0,0.5],[1,0.5]];portConstraint=eastwest;whiteSpace=wrap;html=1;" vertex="1" parent="Am_2OvD1sLbjYcfCMmoj-123">
          <mxGeometry y="78" width="180" height="26" as="geometry" />
        </mxCell>
        <mxCell id="Am_2OvD1sLbjYcfCMmoj-127" value="搜尋" style="swimlane;fontStyle=0;childLayout=stackLayout;horizontal=1;startSize=26;fillColor=none;horizontalStack=0;resizeParent=1;resizeParentMax=0;resizeLast=0;collapsible=1;marginBottom=0;whiteSpace=wrap;html=1;" vertex="1" parent="1">
          <mxGeometry x="710" y="598" width="150" height="52" as="geometry" />
        </mxCell>
        <mxCell id="Am_2OvD1sLbjYcfCMmoj-128" value="+&amp;nbsp; getRouteName():String" style="text;strokeColor=none;fillColor=none;align=left;verticalAlign=top;spacingLeft=4;spacingRight=4;overflow=hidden;rotatable=0;points=[[0,0.5],[1,0.5]];portConstraint=eastwest;whiteSpace=wrap;html=1;" vertex="1" parent="Am_2OvD1sLbjYcfCMmoj-127">
          <mxGeometry y="26" width="150" height="26" as="geometry" />
        </mxCell>
        <mxCell id="Am_2OvD1sLbjYcfCMmoj-129" value="1" style="endArrow=none;html=1;rounded=0;exitX=0.596;exitY=0.007;exitDx=0;exitDy=0;exitPerimeter=0;" edge="1" parent="1" source="Am_2OvD1sLbjYcfCMmoj-83" target="Am_2OvD1sLbjYcfCMmoj-73">
          <mxGeometry x="0.6638" y="-6" width="50" height="50" relative="1" as="geometry">
            <mxPoint x="500" y="410" as="sourcePoint" />
            <mxPoint x="550" y="360" as="targetPoint" />
            <mxPoint as="offset" />
          </mxGeometry>
        </mxCell>
        <mxCell id="Am_2OvD1sLbjYcfCMmoj-130" value="" style="endArrow=none;html=1;rounded=0;exitX=1;exitY=0.5;exitDx=0;exitDy=0;endFill=0;edgeStyle=orthogonalEdgeStyle;" edge="1" parent="1" source="Am_2OvD1sLbjYcfCMmoj-86" target="Am_2OvD1sLbjYcfCMmoj-93">
          <mxGeometry width="50" height="50" relative="1" as="geometry">
            <mxPoint x="290" y="750" as="sourcePoint" />
            <mxPoint x="340" y="700" as="targetPoint" />
            <Array as="points">
              <mxPoint x="400" y="539" />
              <mxPoint x="400" y="750" />
            </Array>
          </mxGeometry>
        </mxCell>
        <mxCell id="Am_2OvD1sLbjYcfCMmoj-131" value="" style="endArrow=none;html=1;rounded=0;exitX=1;exitY=0.5;exitDx=0;exitDy=0;edgeStyle=orthogonalEdgeStyle;endFill=0;" edge="1" parent="1" source="Am_2OvD1sLbjYcfCMmoj-86" target="Am_2OvD1sLbjYcfCMmoj-97">
          <mxGeometry width="50" height="50" relative="1" as="geometry">
            <mxPoint x="640" y="410" as="sourcePoint" />
            <mxPoint x="690" y="360" as="targetPoint" />
            <Array as="points">
              <mxPoint x="400" y="539" />
              <mxPoint x="400" y="500" />
            </Array>
          </mxGeometry>
        </mxCell>
        <mxCell id="Am_2OvD1sLbjYcfCMmoj-132" value="" style="endArrow=none;html=1;rounded=0;endFill=0;" edge="1" parent="1" source="Am_2OvD1sLbjYcfCMmoj-97" target="Am_2OvD1sLbjYcfCMmoj-141">
          <mxGeometry width="50" height="50" relative="1" as="geometry">
            <mxPoint x="551.5" y="519" as="sourcePoint" />
            <mxPoint x="1008.5" y="618" as="targetPoint" />
          </mxGeometry>
        </mxCell>
        <mxCell id="Am_2OvD1sLbjYcfCMmoj-133" value="1" style="edgeLabel;html=1;align=center;verticalAlign=middle;resizable=0;points=[];" vertex="1" connectable="0" parent="Am_2OvD1sLbjYcfCMmoj-132">
          <mxGeometry x="0.0303" y="-1" relative="1" as="geometry">
            <mxPoint x="7" y="-9" as="offset" />
          </mxGeometry>
        </mxCell>
        <mxCell id="Am_2OvD1sLbjYcfCMmoj-134" value="" style="endArrow=none;html=1;rounded=0;endFill=0;entryX=0.154;entryY=0.008;entryDx=0;entryDy=0;entryPerimeter=0;exitX=0.28;exitY=0.962;exitDx=0;exitDy=0;exitPerimeter=0;" edge="1" parent="1" source="Am_2OvD1sLbjYcfCMmoj-103" target="Am_2OvD1sLbjYcfCMmoj-109">
          <mxGeometry width="50" height="50" relative="1" as="geometry">
            <mxPoint x="488.5" y="540" as="sourcePoint" />
            <mxPoint x="619.5" y="390" as="targetPoint" />
          </mxGeometry>
        </mxCell>
        <mxCell id="Am_2OvD1sLbjYcfCMmoj-135" value="1" style="edgeLabel;html=1;align=center;verticalAlign=middle;resizable=0;points=[];" vertex="1" connectable="0" parent="Am_2OvD1sLbjYcfCMmoj-134">
          <mxGeometry x="-0.2416" relative="1" as="geometry">
            <mxPoint x="5" y="-1" as="offset" />
          </mxGeometry>
        </mxCell>
        <mxCell id="Am_2OvD1sLbjYcfCMmoj-136" value="" style="endArrow=none;html=1;rounded=0;endFill=0;" edge="1" parent="1">
          <mxGeometry width="50" height="50" relative="1" as="geometry">
            <mxPoint x="614" y="300" as="sourcePoint" />
            <mxPoint x="660" y="300" as="targetPoint" />
          </mxGeometry>
        </mxCell>
        <mxCell id="Am_2OvD1sLbjYcfCMmoj-137" value="1" style="edgeLabel;html=1;align=center;verticalAlign=middle;resizable=0;points=[];" vertex="1" connectable="0" parent="Am_2OvD1sLbjYcfCMmoj-136">
          <mxGeometry relative="1" as="geometry">
            <mxPoint x="-17" y="-9" as="offset" />
          </mxGeometry>
        </mxCell>
        <mxCell id="Am_2OvD1sLbjYcfCMmoj-138" value="" style="endArrow=none;html=1;rounded=0;exitX=1;exitY=0.5;exitDx=0;exitDy=0;edgeStyle=orthogonalEdgeStyle;endFill=0;" edge="1" parent="1" source="Am_2OvD1sLbjYcfCMmoj-86" target="Am_2OvD1sLbjYcfCMmoj-101">
          <mxGeometry width="50" height="50" relative="1" as="geometry">
            <mxPoint x="640" y="410" as="sourcePoint" />
            <mxPoint x="690" y="360" as="targetPoint" />
            <Array as="points">
              <mxPoint x="400" y="539" />
              <mxPoint x="400" y="291" />
            </Array>
          </mxGeometry>
        </mxCell>
        <mxCell id="Am_2OvD1sLbjYcfCMmoj-139" value="1" style="endArrow=none;html=1;rounded=0;exitX=1;exitY=0.5;exitDx=0;exitDy=0;edgeStyle=orthogonalEdgeStyle;endFill=0;" edge="1" parent="1" source="Am_2OvD1sLbjYcfCMmoj-86" target="Am_2OvD1sLbjYcfCMmoj-90">
          <mxGeometry x="0.9834" y="9" width="50" height="50" relative="1" as="geometry">
            <mxPoint x="640" y="410" as="sourcePoint" />
            <mxPoint x="690" y="360" as="targetPoint" />
            <Array as="points">
              <mxPoint x="400" y="539" />
              <mxPoint x="400" y="189" />
            </Array>
            <mxPoint as="offset" />
          </mxGeometry>
        </mxCell>
        <mxCell id="Am_2OvD1sLbjYcfCMmoj-140" value="1" style="endArrow=none;html=1;rounded=0;exitX=1;exitY=0.5;exitDx=0;exitDy=0;endFill=0;edgeStyle=orthogonalEdgeStyle;" edge="1" parent="1" source="Am_2OvD1sLbjYcfCMmoj-86" target="Am_2OvD1sLbjYcfCMmoj-104">
          <mxGeometry x="-0.9697" y="9" width="50" height="50" relative="1" as="geometry">
            <mxPoint x="300" y="760" as="sourcePoint" />
            <mxPoint x="350" y="710" as="targetPoint" />
            <Array as="points">
              <mxPoint x="400" y="539" />
              <mxPoint x="400" y="870" />
            </Array>
            <mxPoint as="offset" />
          </mxGeometry>
        </mxCell>
        <mxCell id="Am_2OvD1sLbjYcfCMmoj-141" value="搜尋介面" style="swimlane;fontStyle=1;align=center;verticalAlign=top;childLayout=stackLayout;horizontal=1;startSize=26;horizontalStack=0;resizeParent=1;resizeParentMax=0;resizeLast=0;collapsible=1;marginBottom=0;whiteSpace=wrap;html=1;" vertex="1" parent="1">
          <mxGeometry x="504" y="585" width="140" height="78" as="geometry" />
        </mxCell>
        <mxCell id="Am_2OvD1sLbjYcfCMmoj-142" value="&lt;font style=&quot;font-size: 12px;&quot;&gt;&lt;font style=&quot;font-size: 12px;&quot;&gt;+&amp;nbsp;&amp;nbsp;&lt;/font&gt;&lt;span style=&quot;text-align: center; text-wrap: nowrap; background-color: rgb(255, 255, 255);&quot;&gt;ClickSearchButton()&lt;/span&gt;&lt;/font&gt;" style="text;strokeColor=none;fillColor=none;align=left;verticalAlign=top;spacingLeft=4;spacingRight=4;overflow=hidden;rotatable=0;points=[[0,0.5],[1,0.5]];portConstraint=eastwest;whiteSpace=wrap;html=1;" vertex="1" parent="Am_2OvD1sLbjYcfCMmoj-141">
          <mxGeometry y="26" width="140" height="26" as="geometry" />
        </mxCell>
        <mxCell id="Am_2OvD1sLbjYcfCMmoj-143" value="&lt;font style=&quot;font-size: 12px;&quot;&gt;+&amp;nbsp;&amp;nbsp;&lt;span style=&quot;text-align: center; text-wrap: nowrap; background-color: rgb(255, 255, 255);&quot;&gt;SearchRoute()&lt;/span&gt;&lt;/font&gt;" style="text;strokeColor=none;fillColor=none;align=left;verticalAlign=top;spacingLeft=4;spacingRight=4;overflow=hidden;rotatable=0;points=[[0,0.5],[1,0.5]];portConstraint=eastwest;whiteSpace=wrap;html=1;" vertex="1" parent="Am_2OvD1sLbjYcfCMmoj-141">
          <mxGeometry y="52" width="140" height="26" as="geometry" />
        </mxCell>
        <mxCell id="Am_2OvD1sLbjYcfCMmoj-144" style="rounded=0;orthogonalLoop=1;jettySize=auto;html=1;endArrow=none;endFill=0;" edge="1" parent="1">
          <mxGeometry relative="1" as="geometry">
            <mxPoint x="644" y="637.5" as="sourcePoint" />
            <mxPoint x="710" y="637.5" as="targetPoint" />
          </mxGeometry>
        </mxCell>
        <mxCell id="Am_2OvD1sLbjYcfCMmoj-145" value="1" style="edgeLabel;html=1;align=center;verticalAlign=middle;resizable=0;points=[];" vertex="1" connectable="0" parent="Am_2OvD1sLbjYcfCMmoj-144">
          <mxGeometry x="-0.0182" y="1" relative="1" as="geometry">
            <mxPoint x="-26" y="-8" as="offset" />
          </mxGeometry>
        </mxCell>
        <mxCell id="Am_2OvD1sLbjYcfCMmoj-146" value="" style="endArrow=none;html=1;rounded=0;exitX=1;exitY=0.75;exitDx=0;exitDy=0;" edge="1" parent="1">
          <mxGeometry width="50" height="50" relative="1" as="geometry">
            <mxPoint x="860" y="630" as="sourcePoint" />
            <mxPoint x="920" y="630.4615384615383" as="targetPoint" />
          </mxGeometry>
        </mxCell>
        <mxCell id="Am_2OvD1sLbjYcfCMmoj-147" value="1" style="edgeLabel;html=1;align=center;verticalAlign=middle;resizable=0;points=[];" vertex="1" connectable="0" parent="Am_2OvD1sLbjYcfCMmoj-146">
          <mxGeometry x="0.2797" y="1" relative="1" as="geometry">
            <mxPoint x="-28" y="-6" as="offset" />
          </mxGeometry>
        </mxCell>
        <mxCell id="Am_2OvD1sLbjYcfCMmoj-148" value="*" style="edgeLabel;html=1;align=center;verticalAlign=middle;resizable=0;points=[];" vertex="1" connectable="0" parent="Am_2OvD1sLbjYcfCMmoj-146">
          <mxGeometry x="0.5135" y="-1" relative="1" as="geometry">
            <mxPoint x="8" y="-8" as="offset" />
          </mxGeometry>
        </mxCell>
        <mxCell id="Am_2OvD1sLbjYcfCMmoj-149" value="" style="endArrow=none;html=1;rounded=0;" edge="1" parent="1" source="Am_2OvD1sLbjYcfCMmoj-112" target="Am_2OvD1sLbjYcfCMmoj-116">
          <mxGeometry width="50" height="50" relative="1" as="geometry">
            <mxPoint x="640" y="710" as="sourcePoint" />
            <mxPoint x="690" y="660" as="targetPoint" />
          </mxGeometry>
        </mxCell>
        <mxCell id="Am_2OvD1sLbjYcfCMmoj-150" value="1" style="edgeLabel;html=1;align=center;verticalAlign=middle;resizable=0;points=[];" vertex="1" connectable="0" parent="Am_2OvD1sLbjYcfCMmoj-149">
          <mxGeometry x="0.2632" relative="1" as="geometry">
            <mxPoint x="6" y="-5" as="offset" />
          </mxGeometry>
        </mxCell>
        <mxCell id="Am_2OvD1sLbjYcfCMmoj-151" value="1" style="edgeLabel;html=1;align=center;verticalAlign=middle;resizable=0;points=[];" vertex="1" connectable="0" parent="Am_2OvD1sLbjYcfCMmoj-149">
          <mxGeometry x="-0.1579" y="-2" relative="1" as="geometry">
            <mxPoint x="-9" y="6" as="offset" />
          </mxGeometry>
        </mxCell>
        <mxCell id="Am_2OvD1sLbjYcfCMmoj-152" value="" style="endArrow=none;html=1;rounded=0;" edge="1" parent="1" source="Am_2OvD1sLbjYcfCMmoj-112" target="Am_2OvD1sLbjYcfCMmoj-123">
          <mxGeometry width="50" height="50" relative="1" as="geometry">
            <mxPoint x="640" y="710" as="sourcePoint" />
            <mxPoint x="690" y="660" as="targetPoint" />
          </mxGeometry>
        </mxCell>
        <mxCell id="Am_2OvD1sLbjYcfCMmoj-153" value="*" style="edgeLabel;html=1;align=center;verticalAlign=middle;resizable=0;points=[];" vertex="1" connectable="0" parent="Am_2OvD1sLbjYcfCMmoj-152">
          <mxGeometry x="-0.0971" y="-5" relative="1" as="geometry">
            <mxPoint x="26" y="-6" as="offset" />
          </mxGeometry>
        </mxCell>
        <mxCell id="Am_2OvD1sLbjYcfCMmoj-154" value="*" style="edgeLabel;html=1;align=center;verticalAlign=middle;resizable=0;points=[];" vertex="1" connectable="0" parent="Am_2OvD1sLbjYcfCMmoj-152">
          <mxGeometry x="-0.3829" y="1" relative="1" as="geometry">
            <mxPoint x="-45" y="-14" as="offset" />
          </mxGeometry>
        </mxCell>
        <mxCell id="Am_2OvD1sLbjYcfCMmoj-155" value="&lt;font style=&quot;font-size: 11px;&quot;&gt;1&lt;/font&gt;" style="text;html=1;align=center;verticalAlign=middle;resizable=0;points=[];autosize=1;strokeColor=none;fillColor=none;" vertex="1" parent="1">
          <mxGeometry x="224" y="426" width="30" height="30" as="geometry" />
        </mxCell>
        <mxCell id="Am_2OvD1sLbjYcfCMmoj-156" value="&lt;font style=&quot;font-size: 11px;&quot;&gt;1&lt;/font&gt;" style="text;html=1;align=center;verticalAlign=middle;resizable=0;points=[];autosize=1;strokeColor=none;fillColor=none;" vertex="1" parent="1">
          <mxGeometry x="434" y="269" width="30" height="30" as="geometry" />
        </mxCell>
        <mxCell id="Am_2OvD1sLbjYcfCMmoj-157" value="&lt;font style=&quot;font-size: 11px;&quot;&gt;1&lt;/font&gt;" style="text;html=1;align=center;verticalAlign=middle;resizable=0;points=[];autosize=1;strokeColor=none;fillColor=none;" vertex="1" parent="1">
          <mxGeometry x="433" y="846" width="30" height="30" as="geometry" />
        </mxCell>
        <mxCell id="Am_2OvD1sLbjYcfCMmoj-158" value="&lt;font style=&quot;font-size: 11px;&quot;&gt;1&lt;/font&gt;" style="text;html=1;align=center;verticalAlign=middle;resizable=0;points=[];autosize=1;strokeColor=none;fillColor=none;" vertex="1" parent="1">
          <mxGeometry x="435" y="726" width="30" height="30" as="geometry" />
        </mxCell>
        <mxCell id="Am_2OvD1sLbjYcfCMmoj-159" value="&lt;font style=&quot;font-size: 11px;&quot;&gt;1&lt;/font&gt;" style="text;html=1;align=center;verticalAlign=middle;resizable=0;points=[];autosize=1;strokeColor=none;fillColor=none;" vertex="1" parent="1">
          <mxGeometry x="434" y="476" width="30" height="30" as="geometry" />
        </mxCell>
        <mxCell id="Am_2OvD1sLbjYcfCMmoj-160" value="&lt;font style=&quot;font-size: 11px;&quot;&gt;1&lt;/font&gt;" style="text;html=1;align=center;verticalAlign=middle;resizable=0;points=[];autosize=1;strokeColor=none;fillColor=none;" vertex="1" parent="1">
          <mxGeometry x="479" y="338" width="30" height="30" as="geometry" />
        </mxCell>
        <mxCell id="Am_2OvD1sLbjYcfCMmoj-161" value="&lt;font style=&quot;font-size: 11px;&quot;&gt;1&lt;/font&gt;" style="text;html=1;align=center;verticalAlign=middle;resizable=0;points=[];autosize=1;strokeColor=none;fillColor=none;" vertex="1" parent="1">
          <mxGeometry x="638" y="276" width="30" height="30" as="geometry" />
        </mxCell>
        <mxCell id="Am_2OvD1sLbjYcfCMmoj-162" value="&lt;font style=&quot;font-size: 11px;&quot;&gt;1&lt;/font&gt;" style="text;html=1;align=center;verticalAlign=middle;resizable=0;points=[];autosize=1;strokeColor=none;fillColor=none;" vertex="1" parent="1">
          <mxGeometry x="554" y="560" width="30" height="30" as="geometry" />
        </mxCell>
        <mxCell id="Am_2OvD1sLbjYcfCMmoj-163" value="&lt;font style=&quot;font-size: 11px;&quot;&gt;1&lt;/font&gt;" style="text;html=1;align=center;verticalAlign=middle;resizable=0;points=[];autosize=1;strokeColor=none;fillColor=none;" vertex="1" parent="1">
          <mxGeometry x="689" y="613" width="30" height="30" as="geometry" />
        </mxCell>
      </root>
    </mxGraphModel>
  </diagram>
</mxfile>
